<svg class="svg-icon" style="width: 1em; height: 1em;vertical-align: middle;fill: currentColor;overflow: hidden;" viewBox="0 0 1024 1024" version="1.1" xmlns="http://www.w3.org/2000/svg"><path d="M848.043196 344.643936C763.162084 392.971903 724.868313 464.542346 733.161884 559.355264 741.455454 654.270573 789.783422 718.366563 878.043396 751.643236 858.077392 793.315868 835.551645 834.066993 810.568543 874.10139 745.653435 973.931407 686.574543 1023.89761 633.229477 1023.89761c-19.966003 0-46.587341-7.474453-79.864014-22.525747C520.088791 986.422958 487.631237 978.948505 455.992801 978.948505c-31.638436 0-63.686431 7.474453-96.143986 22.423358C327.391261 1016.423158 301.179482 1023.89761 281.111089 1023.89761c-56.621538 0-115.70043-46.587341-177.339066-139.864414C45.614639 794.134987 11.826017 699.629237 2.713329 600.618338-6.50175 501.607439 8.139986 424.507949 46.433757 369.627037 101.314669 283.107689 172.885111 239.694431 261.145085 239.694431c28.259574 0 62.867313 7.474453 103.618438 22.423358 40.751125 14.948905 71.160884 22.525747 91.126887 22.525747s49.147085-7.474453 87.440856-22.525747C581.625037 247.271273 617.461454 239.694431 650.738126 239.694431 725.687431 239.694431 791.421658 274.711729 848.043196 344.643936zM580.805919 167.30487c-43.310869 56.621538-95.734427 83.242876-157.373063 79.864014C415.139286 192.287971 432.647935 138.226177 475.958804 84.881112 519.269673 33.379062 570.874113 5.017098 630.772123 0 639.065693 56.621538 622.478552 112.423958 580.805919 167.30487z"  /></svg>