<svg class="svg-icon" style="width: 1em; height: 1em;vertical-align: middle;fill: currentColor;overflow: hidden;" viewBox="0 0 1024 1024" version="1.1" xmlns="http://www.w3.org/2000/svg"><path d="M896.704 577.551v306.125c0 47.674-27.161 74.567-74.567 74.567h-619.25c-47.406 0-74.567-26.894-74.567-74.567V575.551s-63.711 0.495-63.711-62.852V394.561c0-48.862 25.972-74.567 74.567-74.567H277.29c-23.788-26.434-38.691-69.059-38.691-107.423 0-82.359 63.775-149.135 146.135-149.135 51.944 0 100.579 26.615 127.279 66.885 26.701-40.27 77.334-66.885 129.279-66.885 82.358 0 144.135 66.775 144.135 149.135 0 38.364-14.904 80.989-38.716 107.423H884.85c48.595 0 74.567 25.706 74.567 74.567v117.423c-0.001 64.062-62.713 65.567-62.713 65.567z m-351.836 317.98h264.269c18.4 0 24.856-6.358 24.856-24.855V576.551H544.868v318.98z m-352.837-24.855c0 18.497 6.457 24.855 24.856 24.855h263.269v-318.98H192.031v294.125z m-39.855-486.971c-19.516 0-24.856 5.219-24.856 24.856v79.423c0 19.637 5.34 24.856 24.856 24.856h327.98V383.705h-327.98z m232.557-257.558c-54.906 0-85.423 31.517-85.423 86.423 0 54.906 30.517 107.423 85.423 107.423h95.423V212.57c0-54.906-40.517-86.423-95.423-86.423z m256.558 0c-54.906 0-96.423 31.517-96.423 86.423v107.423h95.423c54.906 0 85.423-52.517 85.423-107.423s-29.517-86.423-84.423-86.423z m255.413 282.414c0-19.637-5.34-24.856-24.855-24.856h-326.98V512.84h326.98c19.516 0 24.855-5.219 24.855-24.856v-79.423z"  /></svg>